/* XPM */
static char *f768835d237f4befcf01b7cbbe54c162Gk5p1wCoWV38RJWm[] = {
/* columns rows colors chars-per-pixel */
"64 64 154 2 ",
"   c #000000",
".  c #080705",
"X  c #0A0907",
"o  c gray6",
"O  c #121212",
"+  c #1A1713",
"@  c #211D17",
"#  c #27211A",
"$  c #2C251D",
"%  c #2E281F",
"&  c #352E24",
"*  c #373126",
"=  c #393126",
"-  c #3D3529",
";  c #3F382C",
":  c gray19",
">  c #40372B",
",  c #423A2D",
"<  c #463E30",
"1  c #493F31",
"2  c #464032",
"3  c #4D4234",
"4  c #4F493E",
"5  c #514636",
"6  c #534738",
"7  c #564A3A",
"8  c #5A4E3C",
"9  c #5D513F",
"0  c #584F40",
"q  c #5E5341",
"w  c #625542",
"e  c #665945",
"r  c #6B5C47",
"t  c #695C47",
"y  c #695B46",
"u  c #675D48",
"i  c #665B48",
"p  c #685C48",
"a  c #695C48",
"s  c #685D48",
"d  c #695D48",
"f  c #685D49",
"g  c #6B5D48",
"h  c #6B5D49",
"j  c #695C4A",
"k  c #6A5D4B",
"l  c #6C5E49",
"z  c #6D5E49",
"x  c #6C5F4A",
"c  c #6D5F4A",
"v  c #6E5F4A",
"b  c #6B5E49",
"n  c #6C604B",
"m  c #6E604B",
"M  c #6F604B",
"N  c #6F614B",
"B  c #6D604C",
"V  c #6F634F",
"C  c #6E614B",
"Z  c #70604B",
"A  c #70614C",
"S  c #70624C",
"D  c #70634D",
"F  c #70634E",
"G  c #74634E",
"H  c #72654E",
"J  c #72664F",
"K  c #76654E",
"L  c #77664F",
"P  c #72634D",
"I  c #6F6550",
"U  c #736751",
"Y  c #726652",
"T  c #766650",
"R  c #766750",
"E  c #746650",
"W  c #786650",
"Q  c #786750",
"!  c #796750",
"~  c #786750",
"^  c #756952",
"/  c #7B6952",
"(  c #7A6A52",
")  c #7B6A52",
"_  c #7C6B53",
"`  c #7D6B53",
"'  c #7E6B53",
"]  c #7E6C54",
"[  c #7E6D54",
"{  c #7E6D55",
"}  c #7E6E55",
"|  c #7F6E56",
" . c #7F6F56",
".. c #7C6B53",
"X. c #7E6F58",
"o. c #7F7057",
"O. c #7E7058",
"+. c #767676",
"@. c #806E56",
"#. c #816F56",
"$. c #806F56",
"%. c #826F56",
"&. c #816E56",
"*. c #807057",
"=. c #827057",
"-. c #807158",
";. c #827158",
":. c #83735A",
">. c #847158",
",. c #857259",
"<. c #85735A",
"1. c #83745A",
"2. c #87755B",
"3. c #87745B",
"4. c #86765B",
"5. c #87775D",
"6. c #85755E",
"7. c #84735A",
"8. c #89755B",
"9. c #88765C",
"0. c #89775D",
"q. c #89765C",
"w. c #87785E",
"e. c #89785D",
"r. c #89795E",
"t. c #8B795E",
"y. c #897B5F",
"u. c #8C795F",
"i. c #8C7A5F",
"p. c #8B795E",
"a. c #827767",
"s. c #877A60",
"d. c #897A62",
"f. c #8A7A62",
"g. c #8C7B60",
"h. c #8C7C61",
"j. c #8E7C61",
"k. c #8E7F63",
"l. c #8D7C61",
"z. c #8B7F6D",
"x. c #917E62",
"c. c #8E8165",
"v. c #908165",
"b. c #918265",
"n. c #938265",
"m. c #928269",
"M. c #92826B",
"N. c #918673",
"B. c #AEA89F",
"V. c #C8C7C6",
"C. c #C9C8C6",
"Z. c #EAEAEA",
"A. c #F3F2F2",
"S. c #FFFFFF",
/* pixels */
"& = - - = - - - = & = - , , , ; ; - = - , = - ; 2 , , - = & & % & - , , - - = - - ; , , - = = & = & = = - - - , = = - , - - ; , ",
"= 7 8 8 8 8 9 8 8 7 8 8 8 8 7 - - 7 7 q w 9 q q e q 7 6 7 6 3 = - 7 9 q 8 7 6 7 7 8 9 9 8 7 3 = = 6 8 q q 8 7 8 8 8 9 9 9 7 6 - ",
", w w e e e e e r P g e w w q , - 8 w V Y j e r M e 9 8 8 8 9 > , 8 e r r w 8 q w j r r e w 8 , = 9 u Y Y r j w j r F M g 8 7 = ",
"= 7 w ] -.0.-.] %.3.8.W / e w , - 8 j d.m.5.3.3.k.*./ R R 9 8 > , 8 j / 8.%.W G L ,.u.u.] r 7 - - w P v.k.3.] %.3.0.g.3.0.w 8 = ",
"& 6 9 W ` ,.%./ ` 3.t.] ` e w , , 9 j 5.d.] -.1.t.%.` / R w 8 - , 9 P %.,.,.` L L 3.t.t.] j 8 , , w r 0.3.,.] t.v.k.k.-.] w 8 > ",
"& 3 8 e w e w w r M P e r q 9 - , 8 q g M e e e j e e V g g w , , w Z Z g P e w 8 e w j r e 9 , - 7 9 e e w 9 e F M j w e 8 8 > ",
"& 3 8 8 8 8 9 9 q q w 9 w 8 6 - , 8 7 8 7 7 8 9 9 9 9 q w e q , , 8 9 7 6 8 7 9 7 9 7 9 9 w 8 = = 3 8 q w 7 7 7 q 8 8 8 7 7 6 > ",
"& = , , , - - - ; - - - , , , - - , , , ; - = = = , , 1 1 1 , - - - - = = - - , - > - > , , - & & = , , , - - - > - > - - - - & ",
"= - > , > , - & & = > > , - , , 2 2 1 ; = = = * = , , - , , , > , - = & & = - - = > , , , > = & = , 2 1 , , , = = , , - - = - - ",
"8 9 q w 8 q 7 - = 6 8 7 q 8 q q e i e w q 7 6 = , 8 9 7 8 q q 8 9 8 8 7 9 8 6 * = 6 9 9 w 9 7 6 7 9 9 9 9 w 8 > > 8 8 7 7 7 8 8 ",
"9 w r g w w 9 , - 7 w e g r e u j j V j r 8 7 - 1 e j w r g M j M g M j Z w 7 = = 8 w e g j w w w w r e j w 9 - , 8 w w r e g L ",
",.8.3.8.%.e 9 , - 3 8 / v.k.5.%.L / %.,.-.w 7 - 1 w j / 0.u.g.v.k.t.8.8.t.e 7 = = 8 w ] 0.t.3.%.%.` o...] w 9 - - 7 w ] 0.8.u.x.",
"%.,.' ,.] w 7 = - 3 7 / x.n.x.8.W L ' *.] w 7 - , e V ] 8.0.k.v.s.3.3.u.0.r 8 , , w w R ] 0.t.8.,.%.5.5.-.r q - - 7 w ] %.8.8.t.",
"P M w e g e 9 = - 3 8 e P P g Z r e w e r 9 7 - , 9 q w e g F ^ j 8 8 w r e w 1 , w e e e g P P g e r e M r q - = 7 9 r e r r g ",
"w 9 7 8 9 9 6 & = 3 7 8 8 7 8 9 9 9 9 8 q 8 6 - - 8 7 8 9 w q q 6 3 3 8 9 w 8 , > 7 8 7 7 8 w w q 9 q w w w 8 - - 7 8 8 7 8 8 8 ",
", , - , , , ; & = = - , - = & = - - , , , , - & = - - ; , , , , = & = - , < , - = - , , , , , , , 1 1 , , , > & = - , - - = - , ",
"& - , , , , - - - , - , - = = & & - > > > , - - = 1 , , - , , = & = - , , , - - = - - - > - - = = 1 , , , , - = = ; , , ; - , - ",
"= 8 w q q e w w w w 8 8 8 8 6 = = 6 8 8 q w q 8 8 q q 8 7 q 9 , = 3 7 q 9 0 7 7 7 8 9 8 7 7 6 - ; q q q 9 8 7 3 6 8 w q 8 7 8 , ",
"= 8 w e e M r g g G M V I j q                         e w w X         e p e i w e q e w w 8 6 - > 9 w w w e e w e V F Y g r w 1 ",
"- q w / ] k.t.k.t.u.3.d.s.V w             S.S.        S.-.j q +         . / o...X./ ,.-./ 8 3 - , w r ] ,.*.3.-.3.3.0.u.%.g 9 , ",
"- 8 9 Z L ] ..] ,.8.u.v.k.n q             S.8.        S.*.r w ,           V.d.5.-./ -.k.3.w 6 = - 7 e ..t.%.3.-.u.8.t.0.,.F e , ",
"- 8 w w j j j e j e e r g e 8             S.i e       S.w j w ;             a.r w e M R F 9 6 = - 7 w F Y e w 9 e e r e r j q , ",
"= 7 9 8 w 9 8 6 7 6 8 8 9 8 3             S.8 9 q +.  S.7 8 8 , - O           . 9 8 w e w 8 6 = = 2 6 8 q 7 7 3 8 7 8 8 q w 8 - ",
"= = = - , , - = = = = , , , -             S., , , ,   S.= ; , = = - o           A.= - - - = = = & = & = = - = = = - - , , , - = ",
", - = = - , - & & - , 1 , , -             S., ; - , - S.- - , > , , ,           O - , - - - - , - = & = - - - & * - , , , - , , ",
"7 8 7 6 7 8 7 - = 8 9 w q e e e :             , - 7 8 9 8 9 8 7 8 9 q 8 +           1 9 8 8 8 8 7 7 7 8 w w 8 - = 6 8 7 8 8 w w ",
"e r e w w e 9 , - q j ^ V Y M g e             S.- 8 q r g g r e e r M j e             N.R M r r w w e P Y j w > - 6 q u V g P G ",
"1.*./ / g w 7 - = 7 r t.t.k.t.t.-.t.Z.            7 w ,.x.u.,.*.` ' *.] ] w o           X x.%.` L / -.k.w.j q , - 6 w 1.k.g.u.n.",
"v.-.P L g w 7 - = 7 j t.g.k.,.5.-.w.-.+           S.e %.8.0.8.g.*.*.] t.5.j w O           C.,.*.` / L %.` w 7 - - 6 w o.5.-.*.0.",
"V w 8 9 w e q , - 8 e g r e w e e M j j             w r r e r g w q 8 j M F r 1             z.M r e w w w w 7 - - 6 8 9 w w r P ",
"9 8 8 7 q w q , , 8 9 9 8 8 7 6 8 9 9 9 9             8 6 #                                   w q 9 7 7 8 9 8 - = 3 7 7 7 7 7 8 ",
"- = - = , , 1 - = - = = - - =   4 - , , ,             S.= +                                   S.- , , , , , , = & = - , = = = - ",
"& = - = - - , , 1 ; = = - - -     - - , ;             S.= +                                   S.= - , , , , , - = - , , - = & & ",
"= 6 7 3 8 8 w q w q 8 3 6 6 6       3 q 8             S.6 #                                   S.- 6 w q q 9 w 8 8 7 9 w 9 7 3 = ",
", 8 9 9 j P ^ M P M j w e w 8         i e             S.8 #                                   S., 8 w w g Z L g M e g e Z e 8 - ",
"1 9 e Z -.3.k.t.0.-.] ^ / e 9           6.            S.r %           S.S.S.S.S.S.S.S.S.S.S.S.S., 9 j ] u.x.n.u.8.] 0.8.0.P w , ",
"1 8 e g ..o.5.0.] / Z L / g 8 - S.S.S.S.S.M.S.S.S.S.S.S.F %           S.,.%.P Z Z -.0.u.,.r 8 , , w g ,.n.n.n.3.%.W ] %.] g 9 - ",
"- 7 w w w w r M e w 8 w e w 8 - - 7 w r r r g r g e e u j &           S.e e 8 8 7 w e j r 8 7 , , w e P P V e w w w w r e j 8 - ",
"& 1 6 8 9 9 9 8 7 7 7 8 7 8 7 - - 6 8 8 8 7 8 9 w 9 w q q %           S.w 9 8 6 1 2 6 9 q 8 7 - , 8 8 9 w q 7 8 7 6 3 6 7 q 7 = ",
"% % & = > , , , - ; - - = = - = - ; , , , > - , , , 1 1 1 @           S.> - > = & & - , , , , = = - > - - - = ; - - - - - , - = ",
"& & & = - , , - = , , - = - , , - , , , - - = = = , , , , @           S.- , , = * * ; - , , , - > > , , > , 1 , - - > - - - - = ",
"7 6 1 2 6 7 8 , , q q q 9 8 9 9 9 w q q 8 8 6 - - 9 q q q w B.S.S.S.S.S.9 q q - , 7 q 7 9 q q 8 8 q w 9 8 9 8 - = 7 9 9 8 8 8 7 ",
"w w 9 w e w 9 , , w r Z P P r j j V r e 9 9 8 , , q w e w e w e w r e e j V u , , w e w e j j e e r e w w e w - = 6 8 w w e e w ",
"t.*.^ %./ w 7 > , q g 8.n.x.u.d.t.k.0.,.L 9 8 > , w e / / ] ` L *.0.x.k.t.F w , , w j ] %.] ] *.' %.%./ P 9 7 = = 6 8 Z ` %.,.*.",
"k.3.5.t.0.r 8 - , w r -.k.v.d.t.0.k.0.,.L w 8 , , 9 e W ` W ` / %.0.x.v.w.M 9 - , w P -.,.] ] %.,.0.t.%.W w 8 , - 7 8 Z ] 3.t.3.",
"F g j r P g 9 - = 8 w e g F V e w r r e w q 8 , - 7 w e e w g j r e V U ^ e 8 = , 9 e w w w e g g V j w w 8 8 - - 8 9 e r g F L ",
"8 8 9 7 q 9 7 & = 6 7 7 7 9 9 6 7 8 7 7 6 8 7 - - 6 q 8 7 7 8 9 8 7 q q w 8 6 & - 7 8 8 8 w 8 8 8 q 9 8 8 q 9 , - 6 8 9 9 9 w e ",
"= - - = = - - & & = - - - - - = = - - - - , - = = - , - - - , , , - ; , , , , = - , , , , , , - = - = = = - , = = = > > = = - , ",
"= - - = & & = & = - , , - - = & = - 1 , , , , - - , 1 , - = = & & = , , - = - - - - , , , 1 - & & - , - = = - - = = = = = & = & ",
"- 7 8 7 6 6 7 7 7 7 9 w 8 8 3 = - 7 e q w 8 8 7 8 9 e w w 7 7 - - 3 7 8 8 8 8 q 9 q 7 8 8 q 6 = = 7 q 7 7 3 8 9 8 6 6 7 7 7 3 = ",
"- 9 w e w w e w e w r r w 8 6 - , q V g Y j j w r g P Z g e 9 - = 6 q r p e e w w e w w w q 6 = , q M e e 9 e g e w 9 e j e 8 = ",
", q e ] ] u.0.*./ ` *.,.R 8 3 = - 8 g %.k.d.5.-.,.,.%.,.0.P w , ; 8 w %.t.k.3.3.-.u.,.%.L 8 6 & - 7 r ` ,.,.,.,.' %.*.t.8.P w , ",
", w r / ] u.x.8.` ] 3.8.] 8 3 & = 8 g ] t.t.d.3.,.3.%.3.-.j 9 - - 7 e / 5.-.] ] ] u.x.k.-.9 7 = - 7 w -.t.3./ / ` ,.,.8.] g q , ",
", w e w w e r w w e g g e 8 6 % & 3 w w e e w w w e w w e 9 9 - , 7 w w r w w w e P P P j w 7 = = 7 q j V M w 8 8 w e r r w 9 , ",
"- 7 7 7 7 8 9 9 9 q 8 8 8 8 6 & & 3 8 7 6 7 6 7 7 9 9 7 7 6 8 - , 6 q 7 7 6 6 6 7 8 q w q 9 6 = = 7 q w e q 8 7 7 6 7 8 8 7 6 = ",
"& = - - - - - = > , - - = - = & & = = - = , - > - > > - - - , = ; , < - - = = = - , , , - , - = = > , , , , , - = = - , - = = & ",
"- - - , - > - = = - - - - > - = = - - - = - - = = > , , , - - , 2 2 , - - - - * = , , , , , , > , , , , , , , = & = , > - & = = ",
"6 8 w w 9 7 3 = - 6 8 7 7 7 7 7 7 8 q q 8 8 7 - > 7 w w q 8 7 9 q q 8 8 q 9 7 - , w w i q w 9 w 9 8 7 7 7 8 8 ; - 6 w 8 8 6 6 6 ",
"w r g Z e 8 6 - > 7 q w r e r e r j g g e 9 3 = - 8 w j j n j P j e e g M e 8 - , w n Y V P g Z Z g w w 9 e q , , 7 w w r w e w ",
"M / 3.] L 8 7 - - 8 w W ,.,.,.%.0.0.g.t.%.w 7 - - 7 w ] 5.h.c.c.3.5.0.x.3.r 8 = = 8 M k.m.k.k.u.x.3...L P e q 1 , 8 w R ` %./ / ",
"/ / ,.L L w 8 , , q e ` %.] %.] 8.,.3.,.%.r 7 - = 8 e o.5.h.h.v.3.k.u.v.-.9 6 & = 7 j -.k.k.x.8.5.1.o./ R j w 1 , w e %.] -.L L ",
"e w r 9 j e w , , w e e e r r w j r M r r w 8 > > e M M e j j V r F P P j 9 6 & & 3 w r j j r r e e j e e w e 1 1 w w e w j w 9 ",
"8 7 8 8 w e 9 > - 8 9 7 6 7 7 7 9 q w q 9 9 7 - > q e 9 8 8 9 w q q 9 w q 7 3 & & 3 8 9 8 7 7 8 7 8 9 8 7 9 w , , 7 9 9 q w q 8 ",
"= = , , 1 , , = * - - - = > - > , , , , , , - = - , , - - - , 1 , , > , , , - = & = - , ; - = > , , , = - , 1 - = = - - , , 2 , "
};
