/* XPM */
static char *_94032aef67a48d8d63fd0d4b8c318dawF3roNtEktciiFbs[] = {
/* columns rows colors chars-per-pixel */
"64 64 151 2 ",
"   c #020202",
".  c #0A0A0A",
"X  c #121212",
"o  c #1B1B1B",
"O  c #2D271E",
"+  c #2F2F2F",
"@  c #352E24",
"#  c #373026",
"$  c #393126",
"%  c #3D3529",
"&  c #3F382C",
"*  c gray19",
"=  c #3A3A3A",
"-  c #40372B",
";  c #423A2D",
":  c #463E30",
">  c #483F31",
",  c #464032",
"<  c #4D4234",
"1  c #514636",
"2  c #534738",
"3  c #564A3A",
"4  c #5A4E3C",
"5  c #5D513F",
"6  c #444444",
"7  c #584F40",
"8  c #5E5341",
"9  c #555555",
"0  c #5A5A5A",
"q  c #625542",
"w  c #665945",
"e  c #6B5C47",
"r  c #695C47",
"t  c #695B46",
"y  c #675D48",
"u  c #665C48",
"i  c #685C48",
"p  c #695C48",
"a  c #685D48",
"s  c #695D48",
"d  c #685D49",
"f  c #6B5D48",
"g  c #6B5D49",
"h  c #695C4A",
"j  c #6A5D4B",
"k  c #6C5E49",
"l  c #6D5E49",
"z  c #6C5F4A",
"x  c #6D5F4A",
"c  c #6E5F4A",
"v  c #6B5D49",
"b  c #6C604B",
"n  c #6E604B",
"m  c #6F604B",
"M  c #6F614B",
"N  c #6D604C",
"B  c #6F634F",
"V  c #6E614B",
"C  c #70604B",
"Z  c #70614C",
"A  c #70624C",
"S  c #70634D",
"D  c #70634E",
"F  c #74634E",
"G  c #72654E",
"H  c #72664F",
"J  c #76654E",
"K  c #77664F",
"L  c #72634D",
"P  c #6F6550",
"I  c #736751",
"U  c #726652",
"Y  c #766650",
"T  c #766750",
"R  c #746650",
"E  c #786650",
"W  c #786750",
"Q  c #796750",
"!  c #786750",
"~  c #756952",
"^  c #7B6952",
"/  c #7A6A52",
"(  c #7B6A52",
")  c #7C6B53",
"_  c #7D6B53",
"`  c #7E6B53",
"'  c #7E6C54",
"]  c #7E6D55",
"[  c #7E6E55",
"{  c #7F6E56",
"}  c #7F6F56",
"|  c #7C6B53",
" . c #7E6F58",
".. c #7E7058",
"X. c gray43",
"o. c #777777",
"O. c #7C7C7C",
"+. c #806E56",
"@. c #816F56",
"#. c #806F56",
"$. c #826F56",
"%. c #816E56",
"&. c #807057",
"*. c #827057",
"=. c #807158",
"-. c #827158",
";. c #83735A",
":. c #847158",
">. c #857259",
",. c #85735A",
"<. c #83745A",
"1. c #87755B",
"2. c #87745B",
"3. c #86765B",
"4. c #87775D",
"5. c #85755E",
"6. c #84735A",
"7. c #89755B",
"8. c #88765C",
"9. c #89775D",
"0. c #89765C",
"q. c #87785E",
"w. c #89785D",
"e. c #89795E",
"r. c #8B795E",
"t. c #897B5F",
"y. c #8C795F",
"u. c #8C7A5F",
"i. c #8B795E",
"p. c #877A60",
"a. c #897A62",
"s. c #8A7A62",
"d. c #8C7B60",
"f. c #8C7C61",
"g. c #8E7C61",
"h. c #8E7F63",
"j. c #8D7D61",
"k. c #917E62",
"l. c #8F8266",
"z. c #908165",
"x. c #918265",
"c. c #938265",
"v. c #928269",
"b. c #938368",
"n. c #818181",
"m. c #989898",
"M. c #A4A4A4",
"N. c #ABABAB",
"B. c #C5C5C5",
"V. c #DDDDDD",
"C. c #FFFFFF",
/* pixels */
"@ $ % % $ % % % $ @ $ % ; ; ; & & % $ % ; $ % & , ; ; % $ @ @ O @ % ; ; % % $ % % & ; ; % $ $ @ $ @ $ $ % % % ; $ $ % ; % % & ; ",
"$ 3 4 4 4 4 5 4 4 3 4 4 4 4 3 % % 3 3 8 q 5 8 8 w 8 3 2 3 2 < $ % 3 5 8 4 3 2 3 3 4 5 5 4 3 < $ $ 2 4 8 8 4 3 4 4 4 5 5 5 3 2 % ",
"; q q w w w w w e L f w q q 8 ; % 4 q B U h w e m w 5 4 4 4 5 - ; 4 w e e q 4 8 q h e e w q 4 ; $ 5 y U U e h q h e D m f 4 3 $ ",
"$ 3 q ' =.9.=.' $.2.7.E ^ w q ; % 4 h a.v.4.2.2.h.&.^ T T 5 4 - ; 4 h ^ 7.$.E F K >.y.y.' e 3 % % q L z.h.2.' $.2.9.d.2.9.q 4 $ ",
"@ 2 5 E _ >.$.^ _ 2.r.' _ w q ; ; 5 h 4.a.' =.<.r.$._ ^ T q 4 % ; 5 L $.>.>._ K K 2.r.r.' h 4 ; ; q e 9.2.>.' r.z.h.h.=.' q 4 - ",
"@ < 4 w q w q q e m L w e 8 5 % ; 4 8 f m w w w h w w B f f q ; ; q C C f L w q 4 w q h e w 5 ; % 3 5 w w q 5 w D m h q w 4 4 - ",
"@ < 4 4 4 4 5 5 8 8 q 5 q 4 2 % ; 4 3 4 3 3 4 5 5 5 5 8 q w 8 ; ; 4 5 3 2 4 3 5 3 5 3 5 5 q 4 $ $ < 4 8 q 3 3 3 8 4 4 4 3 3 2 - ",
"@ $ ; ; ; % % % & % % % ; ; ; % % ; ; ; & % $ $ $ ; ; > > > ; % % % % $ $ % % ; % - % - ; ; % @ @ $ ; ; ; % % % - % - % % % % @ ",
"$ % - ; - ; % @ @ $ - - ; % ; ; , , > & $ $ $ # $ ; ; % ; ; ; - ; % $ @ @ $ % % $ - ; ; ; - $ @ $ ; , > ; ; ; $ $ ; ; % % $ % % ",
"4 5 8 q 4 8 3 % $ 2 4 3 8 4 8 8 w u w q 8 3 2 $ ; 4 5 3 4 8 8 4 5 4 4 3 5 4 2 # $ 2 5 5 q 5 3 2 3 5 5 5 5 q 4 - - 4 4 3 3 3 4 4 ",
"5 q e f q q 5 ; % 3 q w f e w y h h B h e 4 3 % > w h q e f m h m f m h C q 3 $ $ 4 q w f h q q q q e w h q 5 % ; 4 q q e w f K ",
">.7.2.7.$.w 5 ; % < 4 ^ z.h.4.$.K ^ $.>.=.q 3 % > q h ^ 9.y.d.z.h.r.7.7.r.w 3 $ $ 4 q ' 9.r.2.$.$._ ..| ' q 5 % % 3 q _ 9.7.y.k.",
"$.>.` >.' q 3 $ % < 3 ^ k.c.k.7.E K ` &.' q 3 % ; w B ' 7.9.h.z.p.2.2.y.9.e 4 ; ; q q T ' 9.r.7.>.$.4.4.=.e 8 % % 3 q _ $.7.7.r.",
"L m q w f w 5 $ % < 4 w L L f C e w q w e 5 3 % ; 5 8 q w f D ~ h 4 4 q e w q > ; q w w w f L L f w e w m e 8 % $ 3 5 e w e e f ",
"q 5 3 4 5 5 2 @ $ < 3 4 4 3 4 5 5 5 5 4 8 4 2 % % 4 3 4 5 q 8 8 2 < < 4 5 q 4 ; - 3 4 3 3 4 q q 8 5 8 q q q 4 % % 3 4 4 3 4 4 4 ",
"; ; % ; ; ; & @ $ $ % ; % $ @ $ % % ; ; ; ; % @ $ % % & ; ; ; ; $ @ $ % ; : ; % $ % ; ; ; ; ; ; ; > > ; ; ; - @ $ % ; % % $ % ; ",
"@ % ; ; ; ; % % % ; % ; % $ $ @ @ % - - - ; % % $ > ; ; % ; ; $ @ $ % ; ; ; % % $ % % % - % % $ $ > ; ; ; ; % $ $ & ; ; & % ; % ",
"$ 4 q 8 8 w q q q q 4 4 4 4 2 $ $ 2 4 4 8 q 8 4 4 8 8 4 3 8 5 ; $ < 3 8 5 7 3 3 3 4 5 4 3 3 2 % & 8 8 8 5 4 3 < 2 4 q 8 4 3 4 ; ",
"$ 4 q w w m e f f F m B P h 8 % ; 5 w e e m f f f b y w q q 8 > ; 4 4 w i w u q w 5 w q q 4 2 % - 5 q q q w w q w B D U f e q > ",
"% 8 q ^ ' h.r.h.r.y.2.a.p.B q - ; q L r.z.h.y.2.9.' =.$.=.h 8 ; - 5 w _ &.^ ..|  .^ >.=.^ 4 < % ; q e ' >.&.2.=.2.2.9.y.$.f 5 ; ",
"% 4 5 C K ' | ' >.7.y.z.h.b 8 % ; q K z.h.h.7.9.7.>.>.>.&.e q ; ; q e K _ ^ a.4.=.^ =.h.2.q 2 $ % 3 w | r.$.2.=.y.7.r.9.>.D w ; ",
"% 4 q q h h h w h w w e f w 4 $ - 8 m ~ ~ B u w h e q 4 q h q & % 4 w q 5 q w e q w m T D 5 2 $ % 3 q D U w q 5 w w e w e h 8 ; ",
"$ 3 5 4 q 5 4 2 3 2 4 4 5 4 < @ $ 2 5 8 8 8 4 5 8 q 4 2 3 4 4 ; % 3 4 3 2 4 4 5 5 4 q w q 4 2 $ $ , 2 4 8 3 3 < 4 3 4 4 8 q 4 % ",
"$ $ $ % ; ; % $ $ $ $ ; ; ; % $ @ $ $ % & ; ; ; ; ; % $ $ & ; $ $ % ; ; % % % % % $ % % % $ $ $ @ $ @ $ $ % $ $ $ % % ; ; ; % $ ",
"; % $ $ % ; % @ @ % ; > ; ; % ; $ $ $ $ $ ; ; & % ; % ; % % ; - ; ; ; ; ; % ; $ % % ; % % % % ; % $ @ $ % % % @ # % ; ; ; % ; ; ",
"3 4 3 2 3 4 3 % $ 4 5 q 8 w w w 5 5 3 4 4 8 5 ; % 3 4 5 4 5 4 3 4 5 8 4 3 3 4 % % 2 4 5 4 4 4 4 3 3 3 4 q q 4 % $ 2 4 3 4 4 q q ",
"w e w q q w 5 ; % 8 h ~ B U m f w w w q 5 4 4 % % 4 8 e f f e w w e m h w 8 8 ; - 4 h ^ T m e e q q w L U h q - % 2 8 u B f L F ",
"<.&.^ ^ f q 3 % $ 3 e r.r.h.r.r.=.r.2.2.^ q 4 % % 3 q >.k.y.>.&._ ` &.' ' q q ; % 3 q f.h.k.$._ K ^ =.h.4.h 8 ; % 2 q <.h.d.y.c.",
"z.=.L K f q 3 % $ 3 h r.d.h.>.4.=.4.=.' L 8 5 % % 3 w $.7.9.7.d.&.&.' r.4.h q ; % 4 q f.h.h.>.&._ ^ K $._ q 3 % % 2 q ..4.=.&.9.",
"B q 4 5 q w 8 ; % 4 w f e w q w w m h h e w q % $ 3 q e e w e f q 8 4 h m D e > % 3 3 w e L C m e w q q q q 3 % % 2 4 5 q q e L ",
"5 4 4 3 8 q 8 ; ; 4 5 5 4 4 3 5 4 5 5 5 5 4 2 @ $ 2 4 4 2 2 3 5 3 3 2 5 4 q 5 ; $ < 3 8 q q q q 8 5 3 3 4 5 4 % $ < 3 3 3 3 3 4 ",
"% $ % $ ; ; > % $ % $ $ % % $ $ $ % ; ; ; & $ @ @ $ ; % $ @ @ @ $ $ $ % $ & & $ @ @ % % ; ; ; % % ; ; ; ; ; ; $ @ $ % ; $ $ $ % ",
"@ $ % $ % % ; ; > & $ $ % % % # $ % % ; & % $ @ $ $ % $ $ @ # @ $ % ; & $ % % & % ; ; % & ; ; @ $ % ; ; ; ; ; % $ % ; ; % $ @ @ ",
"$ 2 3 < 4 4 q 8 q 8 4 < 2 2 2 $ % 4 3 8 4 5 4 2 3 3 4 2 2 < < $ % 4 w q 8 4 3 4 4 5 4 3 4 3 3 # % 2 q 8 8 5 q 4 4 3 5 q 5 3 < $ ",
"; 4 5 5 h L ~ m L m h q w q 4 $ $ 3 3 q w e e w e 5 q 4 4 2 2 % ; 8 U ~ ~ m w w h B m f f q 4 % ; 4 q q f C K f m w f w C w 4 % ",
"> 5 w C =.2.h.r.9.=.' ~ ^ w 5 % % 4 o o o o o o o o o K e 4 3 ; ; q U 4.4.' K K ^ 2.y.y.>.q 4 % ; 5 h ' y.k.b.y.7.' 9.7.9.L q ; ",
"> 4 w f | ..4.9.' ^ C K ^ f 4 % $ X.+ 9 9 N.m.m.= = + X.D 5 3 % ; 8 h &.>.$.L C C =.9.y.>.e 4 ; ; q f >.c.b.b.2.$.E ' $.' f 5 % ",
"% 3 q q q q e m w q 4 q w q . .                             . ; % 4 q q w w 4 4 3 q w h e 4 3 ; ; q w L L B w q q q q e w h 4 % ",
"@ > 2 4 5 5 5 4 3 3 3 4 3 X 6 o.o.N.N.C.C.C.V.B.N.n.o.o.9 9 6 X $ 2 4 4 q 5 4 2 > , 2 5 8 4 3 % ; 4 4 5 q 8 3 4 3 2 < 2 3 8 3 $ ",
"O O @ $ - ; ; ; % & % % $ .                                     # % ; % - % - $ @ @ % ; ; ; ; $ $ % - % % % $ & % % % % % ; % $ ",
"@ @ @ $ % ; ; % $ ; ; % $ %   o.O.V.V.V.V.N.N.N.o.o.o.o.o.o.. ; % & % % % ; ; $ # # & % ; ; ; % - - ; ; - ; > ; % % - % % % % $ ",
"3 2 > , 2 3 4 ; ; 8 8 8 5 4   N.N.C.C.C.C.V.V.V.N.N.N.N.N.N.. 8 5 5 4 3 5 8 8 % ; 3 8 3 5 8 8 4 4 8 q 5 4 5 4 % $ 3 5 5 4 4 4 3 ",
"q q 5 q w q 5 ; ; q e C L L   9 0 N.C.9 N.N.V.M.o.o.N.6 9 9 . w q e w w h B y ; ; q w q w h h w w e w q q w q % $ 2 4 q q w w q ",
"r.&.~ $.^ q 3 - ; 8 f 7.c.k.  9 0 N.C.9 N.N.V.M.o.o.N.6 9 9 . K &.9.k.h.r.D q ; ; q h ' $.' ' &.` $.$.^ L 5 3 $ $ 2 4 C _ $.>.&.",
"h.2.4.r.9.e 4 % ; q e =.h.z.  9 0 N.C.9 N.N.V.M.o.o.N.6 9 9 . ^ $.9.k.z.4.m 5 % ; q L =.>.' ' $.>.9.r.$.E q 4 ; % 3 4 C ' 2.r.2.",
"K f h e L f 5 % $ 4 q w f D   9 0 N.C.9 N.N.V.M.o.o.N.6 9 9 . h e w B I ~ w 4 $ ; 5 w q q q w f f B h q q 4 4 % % 4 5 w e f D K ",
"4 4 5 3 8 5 3 @ $ 2 3 3 3 5   9 0 N.C.9 N.N.V.M.o.o.N.6 9 9 . 5 4 3 8 8 q 4 2 @ % 3 4 4 4 q 4 4 4 8 5 4 4 8 5 ; % 2 4 5 5 5 q w ",
"$ % % $ $ % % @ @ $ % % % %   9 0 N.C.9 N.N.V.M.o.o.N.6 9 9 . ; ; % & ; ; ; ; $ % ; ; ; ; ; ; % $ % $ $ $ % ; $ $ $ - - $ $ % ; ",
"$ % % $ @ @ $ @ $ % ; ; % %   9 0 N.C.9 N.N.V.M.o.o.N.6 9 9 . @ @ $ ; ; % $ % % % % ; ; ; > % @ @ % ; % $ $ % % $ $ $ $ $ @ $ @ ",
"% 3 4 3 2 2 3 3 3 3 5 q 4 4   9 0 N.C.9 N.N.V.M.o.o.N.6 9 9 . % % < 3 4 4 4 4 8 5 8 3 4 4 8 2 $ $ 3 8 3 3 < 4 5 4 2 2 3 3 3 < $ ",
"% 5 q w q q w q w q e e q 4   9 0 N.C.9 N.N.V.M.o.o.N.6 9 9 . % $ 2 8 e i w w q q w q q q 8 2 $ ; 8 m w w 5 w f w q 5 w h w 4 $ ",
"; 8 w _ ' y.9.&.^ _ &.>.T 4   9 0 N.C.9 N.N.V.M.o.o.N.6 9 9 . ; & 4 q $.r.h.2.2.=.y.>.$.K 4 2 @ % 3 e _ >.>.>.>.` $.&.r.7.L q ; ",
"; q e ^ ' y.k.7._ ' 2.7.' 4   9 0 N.C.9 N.N.V.M.o.o.N.6 9 9 . % % 3 w ^ 4.=.' ' ' y.k.h.=.5 3 $ % 3 q =.r.2.^ ^ _ >.>.7.' f 8 ; ",
"; q w q q w e q q w f f w 4   9 0 N.C.9 N.N.V.M.o.o.N.6 9 9 . % ; 3 q q e q q q w L L L h q 3 $ $ 3 8 h B m q 4 4 q w e e q 5 ; ",
"% 3 3 3 3 4 5 5 5 8 4 4 4 4   9 0 N.C.9 N.N.V.M.o.o.N.6 9 9 . % ; 2 8 3 3 2 2 2 3 4 8 q 8 5 2 $ $ 3 8 q w 8 4 3 3 2 3 4 4 3 2 $ ",
"@ $ % % % % % $ - ; % % $ %   9 0 N.C.9 N.N.V.M.o.o.N.6 9 9 . $ & ; : % % $ $ $ % ; ; ; % ; % $ $ - ; ; ; ; ; % $ $ % ; % $ $ @ ",
"% % % ; % - % $ $ % % % % -   9 0 N.C.9 N.N.V.M.o.o.N.6 9 9 . ; , , ; % % % % # $ ; ; ; ; ; ; - ; ; ; ; ; ; ; $ @ $ ; - % @ $ $ ",
"2 4 q q 5 3 < $ % 2 4 3 3 3   9 0 N.C.9 N.N.V.M.o.o.N.6 9 9 . 5 8 8 4 4 8 5 3 % ; q q u 8 q 5 q 5 4 3 3 3 4 4 & % 2 q 4 4 2 2 2 ",
"q e f C w 4 2 % - 3 8 q e w   9 0 N.C.9 N.N.V.M.o.o.N.6 9 9 . L h w w f m w 4 % ; q b U B L f C C f q q 5 w 8 ; ; 3 q q e q w q ",
"m ^ 2.' K 4 3 % % 4 q E >.>.  9 0 N.C.9 N.N.V.M.o.o.N.6 9 9 . l.2.4.9.k.2.e 4 $ $ 4 m h.v.h.h.y.k.2.| K L w 8 > ; 4 q T _ $.^ ^ ",
"^ ^ >.K K q 4 ; ; 8 w _ $.'   N.N.C.C.C.9 V.V.V.9 m.N.N.o.N.. z.2.h.y.z.=.5 2 @ $ 3 h =.h.h.k.7.4.<...^ T h q > ; q w $.' =.K K ",
"w q e 5 h w q ; ; q w w w e   N.N.C.C.C.C.V.V.V.N.N.N.N.N.N.. B e D L L h 5 2 @ @ < q e h h e e w w h w w q w > > q q w q h q 5 ",
"4 3 4 4 q w 5 - % 4 5 3 2 3 . N.N.C.C.C.C.V.V.V.N.N.N.N.N.N.X q 8 8 5 q 8 3 < @ @ < 4 5 4 3 3 4 3 4 5 4 3 5 q ; ; 3 5 5 8 q 8 4 ",
"$ $ ; ; > ; ; $ # % % % $ - %                               ; > ; ; - ; ; ; % $ @ $ % ; & % $ - ; ; ; $ % ; > % $ $ % % ; ; , ; "
};
