/* XPM */
static char *_a79719910794db5daba593be1b24eebgT1fqtKnloMVFNvY[] = {
/* columns rows colors chars-per-pixel */
"64 64 186 2 ",
"   c #2E271E",
".  c #352D23",
"X  c #2E3720",
"o  c #373026",
"O  c #393126",
"+  c #3D3529",
"@  c #3F382B",
"#  c #343924",
"$  c #40372B",
"%  c #42392D",
"&  c #463E30",
"*  c #483F31",
"=  c #24771E",
"-  c #364D27",
";  c #3C432A",
":  c #345D26",
">  c #365129",
",  c #365326",
"<  c #2D6C24",
"1  c #2C6322",
"2  c #376429",
"3  c #356927",
"4  c #2B7523",
"5  c #277B21",
"6  c #2C7823",
"7  c #464032",
"8  c #4D4234",
"9  c #514636",
"0  c #534738",
"q  c #564A3A",
"w  c #5A4E3C",
"e  c #4D5235",
"r  c #515137",
"t  c #5D513F",
"y  c #535C39",
"u  c #5A5E3E",
"i  c #406E2E",
"p  c #446631",
"a  c #416F30",
"s  c #4A6D34",
"d  c #4F6F39",
"f  c #4D6536",
"g  c #54643C",
"h  c #596F3F",
"j  c #5A643E",
"k  c #4C7236",
"l  c #457C34",
"z  c #4A7837",
"x  c #59763E",
"c  c #547F3D",
"v  c #5E5341",
"b  c #625542",
"n  c #665945",
"m  c #6A5C47",
"M  c #695B46",
"N  c #665C48",
"B  c #695C48",
"V  c #6A5D4A",
"C  c #6D5F4A",
"Z  c #6B5E49",
"A  c #5C6441",
"S  c #6E604B",
"D  c #6E624E",
"F  c #6E614B",
"G  c #606B42",
"H  c #70604B",
"J  c #70624D",
"K  c #77664F",
"L  c #72634D",
"P  c #617747",
"I  c #72714D",
"U  c #6F6550",
"Y  c #736751",
"T  c #766650",
"R  c #746650",
"E  c #786750",
"W  c #786750",
"Q  c #766952",
"!  c #7B6A52",
"~  c #7D6B53",
"^  c #7E6E55",
"/  c #7C6B54",
"(  c #7E6F58",
")  c #777650",
"_  c #7F7056",
"`  c #797853",
"'  c #7E7058",
"]  c #806F56",
"[  c #826F56",
"{  c #816E56",
"}  c #827057",
"|  c #827159",
" . c #857259",
".. c #87755B",
"X. c #86765B",
"o. c #84735A",
"O. c #88775C",
"+. c #89765C",
"@. c #87785E",
"#. c #89795E",
"$. c #8B795E",
"%. c #877A60",
"&. c #8E7D62",
"*. c #8D7C61",
"=. c #917E62",
"-. c #1F9A1E",
";. c #238E1F",
":. c #209B1F",
">. c #1CA61D",
",. c #1BAB1C",
"<. c #15B61A",
"1. c #1AB31D",
"2. c #13BF19",
"3. c #288222",
"4. c #258A20",
"5. c #37812A",
"6. c #3C852E",
"7. c #388C2C",
"8. c #239420",
"9. c #38962C",
"0. c #369C2C",
"q. c #33942C",
"w. c #3E8830",
"e. c #3F9330",
"r. c #2AA425",
"t. c #2AAD27",
"y. c #2EA128",
"u. c #2EAB28",
"i. c #38A12E",
"p. c #32AB2A",
"a. c #26B725",
"s. c #29B326",
"d. c #23BB22",
"f. c #2BB028",
"g. c #2ABB28",
"h. c #2ABB27",
"j. c #33BC2C",
"k. c #4F8C3B",
"l. c #53833C",
"z. c #459736",
"x. c #4F983C",
"c. c #55A23F",
"v. c #45BA37",
"b. c #13C219",
"n. c #13CD1A",
"m. c #1AC81E",
"M. c #1CC41F",
"N. c #0DD517",
"B. c #0ADC16",
"V. c #0FD118",
"C. c #1BD01F",
"Z. c #12DD1B",
"A. c #17D31E",
"S. c #07E614",
"D. c #0BE717",
"F. c #09ED16",
"G. c #0DE718",
"H. c #0DEB19",
"J. c #05EF14",
"K. c #11E11A",
"L. c #11ED1C",
"P. c #04F514",
"I. c #09F317",
"U. c #00FF12",
"Y. c #1FC621",
"T. c #1ECB20",
"R. c #1DD521",
"E. c #25C325",
"W. c #21C922",
"Q. c #2EC32A",
"!. c #2ACB28",
"~. c #32CA2C",
"^. c #23DF26",
"/. c #2BD529",
"(. c #36CE31",
"). c #6B834B",
"_. c #738650",
"`. c #7F8058",
"'. c #7A8B56",
"]. c #659647",
"[. c #54A940",
"{. c #6DA150",
"}. c #87825F",
"|. c #8E8165",
" X c #938265",
".X c #938369",
/* pixels */
". O + + O + + + O . O + % % % @ @ + O + % O + @ 7 % % + O . .   . + % % + + O + + @ % % + O O . O . O O + + + % + + + % + + @ % ",
"O q w w w w t w w q w w w w q + + q q v b t v v n v q 0 q 0 8 O + q t v w q 0 q q w t t w q 8 O O 0 w v v w q w w w t t t q 0 + ",
"% b b n n n n n m L Z n b b v % + w b D Y V n m S n t w w w t $ % w n m m b w v b V m m n b w % + t N Y Y m V b V m L S V w 0 O ",
"O q b ~ | O.| ~ [ ..+.E ! n b % + w V %..X@.....&.} ! T T t w $ % w V ! +.[ E L K  .$.$.~ m q + + b L  X&...~ [ ..O.*...@.b q O ",
". 0 t E ~  .[ ! ~ ..$.~ ~ n b % % t V @.%.~ | o.$.[ ~ ! T b w + % t L [  . .~ K K ..$.$.~ V w % % b m O... .~ $. X&.&.| ~ b w $ ",
". 8 w n b n b b m S L n m v t + % w v Z S n n n V n n D Z Z b % % b H H Z L n b w n b V m n t % + q t n n b t n L S V b n w w $ ",
". 8 w w w w t t v v b t b w 0 + % w q w q q w t t t t v b n v % % w t q 0 w q t q t q t t b w O O 8 w v b q q q v w w w q q 0 $ ",
". O % % % + + + @ + + + % % % + + % % % @ + O O O % % * * * % + + + + O O + + % + $ + $ % % + . . + % % % + + + $ + $ + + + + . ",
"O + $ % $ % + . . O $ $ % + % % 7 7 * @ O O + o O % % + % % % $ % + O . . O + + O $ % % % $ O . O % 7 * % % % O O % % + + O + + ",
"w t v b w v q + O 0 w q v w v v n N n b v q 0 O % w t q w v v w t w w q t w 0 o O 0 t t b t q 0 q t t t t b w $ $ w w q q q w w ",
"t b m Z b b t % + q b n Z m n N V V D V m w q + * n V b m Z S V S Z S V H b q O O w b n Z V b b b b m n V b t + % w b b m n Z K ",
" .+...+.[ n t % + 8 w !  X&.@.[ K ! [  .| b q + * b V ! O.$.*. X&.$.+.+.$.n q O O w b ~ O.$...[ [ ~ ' / ~ b t + + q b ~ O.+.$.=.",
"[  .~  .~ b q + + 8 q ! =. X=.+.E K ~ } ~ b q + % n D ~ +.O.&. X%.....$.O.m w % % b b T ~ O.$.+. .[ @.@.| m v + + q b ~ [ +.+.$.",
"L S b n Z n t O + 8 w n L L Z H m n b n m t q + % t v b n Z L Q V w w b m n b * % b n n n Z L L Z n m n S m v + O q t m n m m Z ",
"b t q w t t 0 . O 8 q w w q w t t t t w v w 0 + + w q w t b v v 0 8 8 w t b w % $ q w q q w b b v t v b b b w + + q w w q w w w ",
"% % + % % % @ . O O + % + O . O + + % % % % + . O + + @ % % % % O . O + % & % + O + 6 ,.8.% % % % * * % % % $ . O + % + + + + % ",
". + % % % % + + + % + % + O O . . + $ $ $ 8.+ + + * % % + % % O . O N.U.V.% : + P.U.n.b.J.U.U.O + * % % % % + O O @ % % @ + % + ",
"O w b v v n b b b b w w w w 0 S.U.U.U.d.v U.v w w v G.w q v t % O U.q v y U.q.q q w t w q q p U.@ v v v t w q 8 0 w b v w q w % ",
"O w b n n S m Z Z L S D U V v B.% t n I.l.U.Z Z Z F U.U.K.U.v * : f w n B U.g.b n t n b b w 0 b.@ t b b b n n b n D L Y Z m b * ",
"+ v b ! ~ &.$.&.$.$...%.%.D b $ % b L $.U.(.'...O.).U._ | I.v % 3.y n ~ } !.L./ ( I.I.L.!.s 8 + 1.b m ~  .} ..| ....O.$.[ Z t % ",
"+ w t H K ~ / ~  .+.$. X&.F v + : p.Q.{.U.&.U.O.+.U._. .` G Y.% 2 u m K ~ U.U.U.U.U.U.I.U.U.U.U.U.q n / $.[ ..| $.+.$.O. .L n % ",
"+ w b b V V V n V n n m Z n w 4 U.u k.U.U.P E.n V U.b U.U.V U.@ + U.n b a.U.W.U.b n S x.H.U.U.1 U.q b L Y n b t n n m n m V v % ",
"O q t w b t w 0 q 0 w w t w 8 = <.U.Z.0.a.U.w U.g U.w n.U.w U.% + D.l 6.U.U.U.9.t w b z U.U.p + U.7 0 w v q q 8 w q w w v b w + ",
"O O O + % % + O O O + % % % + U.. O O + @ U.U.U.P.U.+ U.5 @ U.O O + U.U.<.: U.< + + + 4.U.U.N.O U.O . O O + O O O + + % % % + O ",
"% + O O + % + . . + % * % % + ,.2.O O O O % U.4 U.< ,.% + + U.$ % ; U.% % -.,.N.+ + % , U.+ + n.- O . O + + + . o + % % % + % % ",
"q w q 0 q w q + O w t b v n n W.s.t q w w v t.U.-.q Z.U.U.U.w q f U.v w q M.w U.- 0 w Y.U.a.U.F.q q q w b b w + O 0 w q w w b b ",
"n m n b b n t % + v V Q D Y l.U.U.E.p.e.l s d.U.+ w v m Z Z m n U.m S V n u.v P.U.U.U.U.U.U.U.m b b n L Y V b $ + 0 v N D Z L L ",
"o.} ! ! Z b q + O q m $.$.&.v.U.U.U.U.U.H.C.t.1 + q b ].=.$. .c.~ ~ } U.L.b b % + 7.i.U.}.=.[ ~ K ! | &.@.V v % + 0 b o.&.*.$. X",
" X| L K Z b q + O q V $.*.&. .@.| @.| ~ L v t + + q n U.U.U.U.U.U.U.U.$.[.c b % + w b U.&.&. .} ~ ! K [ ~ b q + + 0 b ' @.| } O.",
"D b w t b n v % + w n Z m n b n n S V V m n b B.U.U.T.x U.h.m H.b v U.U.R.L m * + q q U.m L H S m n b b b b q + + 0 w t b b m L ",
"t w w q v b v % % w t t w w q t w t t t t w 0 . O 0 w.U.F.5.q T.q q i t w A U.U.U.U.U.k b b b b v t q q w t w + O 8 q q q q q w ",
"+ O + O % % * + + + O O + + O O + + % % % @ O . . O % + O . . # O O B.U.U.< @ + . . + + % % % + + % % % % % % O . O + % O O O + ",
". O + O + + % % * @ O O + + + U.U.U.;.% @ 5 ,.S.U.U.U.U.O U.P.X O + % % + 2.+ @ + % % U.@ % % . O + % % % % % + O + % % + O . . ",
"O 0 q 8 w w b v b v w 8 0 0 0 U.+ y.U.t w t w 0 q q F.a 0 8 U.U.U.y n n f.k q w w t w m.6.q q o + 0 b v v t b w w q t b t q 8 O ",
"% w t t V L Q S L S V b n b w < O q q U.n m m n m t F.w w 0 U.+ % v Y Q U.S n n V D S Z U.b w + % w b b Z H K Z S n Z n H n w + ",
"* t n H | ..&.$.O.| ~ Q ! n t + + w b U. ...+.+. .U.K K m w U.% % b Y @.U.~ K K ! U.$.$.v.U.w + % t V ~ $.=. X$.+.~ O.+.O.L b % ",
"* w n Z / ' @.O.~ ! H K ! Z w + S.U.P.Q.[ [ +.O.$.U.Q K L t F.+ % v V } U.[ L H H U.O.$. .Z.y % % b Z  . X X X..[ E ~ [ ~ Z t + ",
"+ q b b b b m S n b w b n b w + U.U.U.U.c m Z m U.U.n N V z.k % + w b b U.n k 6.r U.n V m w U.% % b n L L D n b b b b m n V w + ",
". * 0 w t t t w q q q w q w q + + r.r.s U.s y k K.U.b v v P.0 O O 0 w w U.t w e U.U.U.Z.l w U.+ % w w t b v q w q 0 8 0 q v q O ",
"    . O $ % % % + @ + + O O + O + @ % % < U.>.U.% n.* * * U.+ O o + % + @ U.$ O . U.> 4 1.b.:.O + + $ + + + + @ + + + + + % + O ",
". . . O + % % + O % % + O + % % + % % % + U.U.O O >.% % % U.+ P.; @ + + + U.% O o U.> + % % % + $ $ % % $ % * % + + $ + + + + O ",
"q 0 * 7 0 q w % % v v v t w t g G.b v v w Z.2 + + l g v v U.t F.t t w q t d A.+ % U.g q t v v w w v b t w t w + O q t t w w w q ",
"b b t b n b t % % b m H L L m U.V D m n t t U.% % v E.A b W.U.n b m n n V D U.% % U.h b n V V n n m n b b n b + O 0 w b b n n b ",
"$.} Q [ ! b q $ % v Z +. X=.$.U.L.^./.~.j.s.U.$ % b E.! I ) U.K } O.=.&.$.L b U.% I.U.U.).~ ~ } ~ [ [ ! L t q + O 0 w H ~ [  .} ",
"&...@.$.O.m w + % b m | &. X%.'.`.&.O. .K b w % % t n E ~ E ).U.U.U.U.U.U.U.U.U.% U.U.|  .~ ~ [  .O.$.[ E b w % + q w H ~ ..$...",
"L Z V m L Z t + O w b n Z L D n b m m n b v w % + q b n n b Z V m n D Y Q n w O % 0.G.j b b n Z Z D V b b w w + + w t n m Z L K ",
"w w t q v t q . O 0 q q q t t 0 q w q q 0 w q + + 0 v w q q w t w q v v b w 0 . + q w w w b w w w v t w w v t % + 0 w t t t b n ",
"O + + O O + + . . O + + + + + O O + + + + % + O O + % + + + % % % + @ % % % % O + % % % % % % + O + + O O + % O O O $ $ O O + % ",
"O + + O . . O . O + % % + + O . O + * % % % % + + % * % + O O . . O % % + O + + + + % % % * + . . + % + O O + + + O O O O . O . ",
"+ q w q 0 0 q q q q t b w w 8 O + q n v b w w q w t n b b q q + + 8 q w w w w v t v q w w v 0 O O q v q q 8 w t w 0 0 q q q 8 O ",
"+ t b n b b n b n b m m b w 0 + % v D Z Y V V b m Z L H Z n t + O 0 v m B n n b b n b b b v 0 O % v S n n t n Z n b t n V n w O ",
"% v n ~ ~ $.O.} ! ~ }  .T w 8 O + w Z [ &.%.@.|  . .[  .O.L b % @ w b [ $.&.....| $. .[ K w 0 . + q m ~  . . . .~ [ } $.+.L b % ",
"% b m ! ~ $.=.+.~ ~ ..+.~ w 8 . O w Z ~ $.$.%... ...[ ..| V t + + q n ! @.| ~ ~ ~ $.=.&.| t q O + q b | $...! ! ~  . .+.~ Z v % ",
"% b n b b n m b b n Z Z n w 0   . 8 b b n n b b b n b b n t t + % q b b m b b b n L L L V b q O O q v V D S b w w b n m m b t % ",
"+ q q q q w t t t v w w w w 0 . . 8 w q 0 q 0 q q t t q q 0 w + % 0 v q q 0 0 0 q w v b v t 0 O O q v b n v w q q 0 q w w q 0 O ",
". O + + + + + O $ % + + O + O . . O O + O % + $ + $ $ + + + % O @ % & + + O O O + % % % + % + O O $ % % % % % + O O + % + O O . ",
"+ + + % + $ + O O + + + + $ + O O + + + O + + O O $ % % % + + % 7 7 % + + + + o O % % % % % % $ % % % % % % % O . O % $ + . O O ",
"0 w b b t q 8 O + 0 w q q q q q q w v v w w q + $ q b b v w q t v v w w v t q + % b b N v b t b t w q q q w w @ + 0 b w w 0 0 0 ",
"b m Z H n w 0 + $ q v b m n m n m V Z Z n t 8 O + w b V V F V L V n n Z S n w + % b S Y D L Z H H Z b b t n v % % q b b m b b b ",
"S ! ..~ K w q + + w b E  . . .[ O.O.*.$.[ b q + + q b ~ @.*.|.|...@.O.=...m w O + w S &..X&.&.$.=.../ K L n v * % w b T ~ [ ! ! ",
"! !  .K K b w % % v n ~ [ ~ [ ~ +. ... .[ m q + O w n _ @.*.*. X..&.$. X| t 0 . O q V | &.&.=.+.@.o.' ! T V b * % b n [ ~ | K K ",
"n b m t V n b % % b n n n m m b V m S m m b w $ $ n S S n V V D m L L L V t 0 . . 8 b m V V m m n n V n n b n * * b b n b V b t ",
"w q w w b n t $ + w t q 0 q q q t v b v t t q + $ v n t w w t b v v t b v q 8 . . 8 w t w q q w q w t w q t b % % q t t v b v w ",
"O O % % * % % O o + + + O $ + $ % % % % % % + O + % % + + + % * % % $ % % % + O . O + % @ + O $ % % % O + % * + O O + + % % 7 % "
};
